<svg xmlns="http://www.w3.org/2000/svg" viewBox="0 0 200 140" fill="none">
  <rect x="15" y="45" width="55" height="85" rx="3" fill="#E8DCC8"/>
  <rect x="10" y="42" width="65" height="6" rx="2" fill="#D4C5A9"/>
  <rect x="23" y="52" width="12" height="14" rx="2" fill="#F5EFE0"/>
  <rect x="43" y="52" width="12" height="14" rx="2" fill="#F5EFE0"/>
  <rect x="23" y="72" width="12" height="14" rx="2" fill="#F5EFE0"/>
  <rect x="43" y="72" width="12" height="14" rx="2" fill="#F5EFE0"/>
  <rect x="23" y="92" width="12" height="14" rx="2" fill="#F5EFE0"/>
  <rect x="43" y="92" width="12" height="14" rx="2" fill="#F5EFE0"/>
  <rect x="33" y="112" width="18" height="18" rx="2" fill="#052641"/>
  <rect x="78" y="20" width="60" height="110" rx="3" fill="#E8DCC8"/>
  <rect x="73" y="17" width="70" height="6" rx="2" fill="#D4C5A9"/>
  <rect x="86" y="28" width="12" height="14" rx="2" fill="#F5EFE0"/>
  <rect x="108" y="28" width="12" height="14" rx="2" fill="#F5EFE0"/>
  <rect x="86" y="48" width="12" height="14" rx="2" fill="#F5EFE0"/>
  <rect x="108" y="48" width="12" height="14" rx="2" fill="#F5EFE0"/>
  <rect x="86" y="68" width="12" height="14" rx="2" fill="#F5EFE0"/>
  <rect x="108" y="68" width="12" height="14" rx="2" fill="#F5EFE0"/>
  <rect x="86" y="88" width="12" height="14" rx="2" fill="#F5EFE0"/>
  <rect x="108" y="88" width="12" height="14" rx="2" fill="#F5EFE0"/>
  <rect x="98" y="108" width="20" height="22" rx="2" fill="#052641"/>
  <rect x="146" y="55" width="45" height="75" rx="3" fill="#E8DCC8"/>
  <rect x="141" y="52" width="55" height="6" rx="2" fill="#D4C5A9"/>
  <rect x="153" y="62" width="10" height="12" rx="2" fill="#F5EFE0"/>
  <rect x="171" y="62" width="10" height="12" rx="2" fill="#F5EFE0"/>
  <rect x="153" y="80" width="10" height="12" rx="2" fill="#F5EFE0"/>
  <rect x="171" y="80" width="10" height="12" rx="2" fill="#F5EFE0"/>
  <rect x="160" y="98" width="16" height="16" rx="2" fill="#F5EFE0"/>
  <rect x="5" y="130" width="190" height="4" rx="2" fill="#D4C5A9"/>
  <circle cx="74" cy="118" r="8" fill="#A8C5A0"/>
  <circle cx="143" cy="120" r="7" fill="#A8C5A0"/>
</svg>